<?xml version="1.0" encoding="UTF-8"?>
<!DOCTYPE svg PUBLIC "-//W3C//DTD SVG 1.1//EN" "http://www.w3.org/Graphics/SVG/1.1/DTD/svg11.dtd">
<!-- Creator: CorelDRAW 2020 (64 Bit) -->
<svg xmlns="http://www.w3.org/2000/svg" xml:space="preserve" width="6.5mm" height="6.5mm" version="1.1" style="shape-rendering:geometricPrecision; text-rendering:geometricPrecision; image-rendering:optimizeQuality; fill-rule:evenodd; clip-rule:evenodd"
viewBox="0 0 650 650"
 xmlns:xlink="http://www.w3.org/1999/xlink"
 xmlns:xodm="http://www.corel.com/coreldraw/odm/2003">
 <defs>
  <style type="text/css">
   <![CDATA[
    .fil0 {fill:#FEFEFE;fill-rule:nonzero}
   ]]>
  </style>
 </defs>
 <g id="Camada_x0020_1">
  <metadata id="CorelCorpID_0Corel-Layer"/>
  <path class="fil0" d="M319.79 69.92c84.77,0 94.83,0.32 128.32,1.85 86.04,3.92 126.23,44.74 130.15,130.15 1.53,33.47 1.83,43.52 1.83,128.3 0,84.8 -0.32,94.83 -1.83,128.3 -3.94,85.33 -44.03,126.23 -130.15,130.15 -33.5,1.53 -43.5,1.85 -128.32,1.85 -84.77,0 -94.83,-0.32 -128.3,-1.85 -86.25,-3.94 -126.23,-44.95 -130.15,-130.18 -1.53,-33.47 -1.85,-43.5 -1.85,-128.3 0,-84.77 0.34,-94.8 1.85,-128.3 3.94,-85.38 44.03,-126.23 130.15,-130.15 33.5,-1.51 43.52,-1.83 128.3,-1.83l0 0.01zm0 -57.23c-86.23,0 -97.02,0.37 -130.89,1.91 -115.31,5.29 -179.39,69.27 -184.68,184.68 -1.56,33.89 -1.93,44.69 -1.93,130.92 0,86.23 0.37,97.05 1.91,130.92 5.29,115.31 69.27,179.39 184.68,184.68 33.89,1.53 44.69,1.91 130.92,1.91 86.23,0 97.05,-0.37 130.92,-1.91 115.2,-5.29 179.44,-69.27 184.65,-184.68 1.56,-33.87 1.93,-44.69 1.93,-130.92 0,-86.23 -0.37,-97.02 -1.91,-130.89 -5.19,-115.2 -69.24,-179.39 -184.65,-184.68 -33.89,-1.56 -44.71,-1.93 -130.94,-1.93l-0.01 -0.01zm0 154.46c-90.04,0 -163.04,73 -163.04,163.04 0,90.04 73,163.06 163.04,163.06 90.04,0 163.04,-73 163.04,-163.06 0,-90.04 -73,-163.04 -163.04,-163.04zm0 268.87c-58.45,0 -105.83,-47.36 -105.83,-105.83 0,-58.45 47.39,-105.83 105.83,-105.83 58.44,0 105.83,47.39 105.83,105.83 0,58.47 -47.39,105.83 -105.83,105.83zm169.49 -313.4c-21.06,0 -38.13,17.07 -38.13,38.1 0,21.03 17.07,38.1 38.13,38.1 21.03,0 38.07,-17.07 38.07,-38.1 0,-21.03 -17.04,-38.1 -38.07,-38.1z"/>
 </g>
</svg>
