<?xml version="1.0" encoding="UTF-8"?>
<!DOCTYPE svg PUBLIC "-//W3C//DTD SVG 1.1//EN" "http://www.w3.org/Graphics/SVG/1.1/DTD/svg11.dtd">
<!-- Creator: CorelDRAW 2020 (64 Bit) -->
<svg xmlns="http://www.w3.org/2000/svg" xml:space="preserve" width="6.5mm" height="6.5mm" version="1.1" style="shape-rendering:geometricPrecision; text-rendering:geometricPrecision; image-rendering:optimizeQuality; fill-rule:evenodd; clip-rule:evenodd"
viewBox="0 0 650 650"
 xmlns:xlink="http://www.w3.org/1999/xlink"
 xmlns:xodm="http://www.corel.com/coreldraw/odm/2003">
 <defs>
  <style type="text/css">
   <![CDATA[
    .fil0 {fill:#FEFEFE;fill-rule:nonzero}
   ]]>
  </style>
 </defs>
 <g id="Camada_x0020_1">
  <metadata id="CorelCorpID_0Corel-Layer"/>
  <path class="fil0" d="M134.06 92.08c0,36.54 -29.37,66.15 -65.62,66.15 -36.25,0 -65.62,-29.61 -65.62,-66.15 0,-36.51 29.37,-66.15 65.62,-66.15 36.25,0 65.62,29.63 65.62,66.15zm0.53 119.07l-132.29 0 0 423.33 132.29 0 0 -423.33zm211.19 0l-131.44 0 0 423.33 131.47 0 0 -222.22c0,-123.56 159.52,-133.67 159.52,0l0 222.22 131.97 0 0 -268.05c0,-208.49 -236.06,-200.9 -291.52,-98.27l0 -57.02 0 0.01z"/>
 </g>
</svg>
