<?xml version="1.0" encoding="UTF-8"?>
<!DOCTYPE svg PUBLIC "-//W3C//DTD SVG 1.1//EN" "http://www.w3.org/Graphics/SVG/1.1/DTD/svg11.dtd">
<!-- Creator: CorelDRAW 2020 (64 Bit) -->
<svg xmlns="http://www.w3.org/2000/svg" xml:space="preserve" width="177mm" height="177mm" version="1.1" style="shape-rendering:geometricPrecision; text-rendering:geometricPrecision; image-rendering:optimizeQuality; fill-rule:evenodd; clip-rule:evenodd"
viewBox="0 0 17700 17700"
 xmlns:xlink="http://www.w3.org/1999/xlink"
 xmlns:xodm="http://www.corel.com/coreldraw/odm/2003">
 <defs>
  <style type="text/css">
   <![CDATA[
    .fil0 {fill:#FEFEFE;fill-rule:nonzero}
   ]]>
  </style>
 </defs>
 <g id="Camada_x0020_1">
  <metadata id="CorelCorpID_0Corel-Layer"/>
  <path class="fil0" d="M4352.06 1352.14c439.25,-263.38 994,55.13 994,561.75 0,231 -120.75,445.38 -319.38,563.5 -2166.5,1300.25 -3618.13,3672.38 -3618.13,6380.5 0,4104.63 3332,7435.75 7435.75,7435.75 4103.75,0 7434.88,-3331.13 7434.88,-7435.75 0,-2706.38 -1449,-5077.63 -3614.63,-6377.88 -196.88,-119 -318.5,-332.5 -318.5,-563.5 0,-509.25 555.63,-825.13 994.88,-561.75 2546.25,1529.5 4250.75,4319 4250.75,7503.12 0,4829.13 -3919.13,8748.25 -8747.38,8748.25 -4828.25,0 -8748.25,-3919.13 -8748.25,-8748.25 0,-3185.88 1707.13,-5976.25 4256,-7505.75l0.01 0.01zm727.12 7509.25c0,0 1771.88,1768.38 3306.63,3302.25 128.63,128.63 296.63,192.5 463.75,192.5 168,0 336,-63.88 464.63,-192.5 1533.88,-1533 3306.63,-3303.13 3306.63,-3303.13 126.88,-126.88 189.88,-294 189.88,-460.25 0,-168 -64.75,-336 -193.38,-464.63 -255.5,-256.38 -670.25,-257.25 -924,-3.5l-2187.5 2186.63 0 -9356.38c0,-362.25 -294,-656.25 -656.25,-656.25 -362.25,0 -656.25,294 -656.25,656.25l0 9356.38 -2185.75 -2185.75c-252.88,-252.88 -666.75,-250.25 -922.25,5.25 -128.63,128.63 -193.38,296.63 -194.25,464.63 0,166.25 62.13,332.5 188.13,458.5l-0.02 0z"/>
 </g>
</svg>
