<?xml version="1.0" encoding="UTF-8"?>
<!DOCTYPE svg PUBLIC "-//W3C//DTD SVG 1.1//EN" "http://www.w3.org/Graphics/SVG/1.1/DTD/svg11.dtd">
<!-- Creator: CorelDRAW 2020 (64 Bit) -->
<svg xmlns="http://www.w3.org/2000/svg" xml:space="preserve" width="6.5mm" height="5.4mm" version="1.1" style="shape-rendering:geometricPrecision; text-rendering:geometricPrecision; image-rendering:optimizeQuality; fill-rule:evenodd; clip-rule:evenodd"
viewBox="0 0 650 540"
 xmlns:xlink="http://www.w3.org/1999/xlink"
 xmlns:xodm="http://www.corel.com/coreldraw/odm/2003"
 xmlns:serif="http://www.serif.com/">
 <defs>
  <style type="text/css">
   <![CDATA[
    .fil0 {fill:#FEFEFE}
   ]]>
  </style>
 </defs>
 <g id="Camada_x0020_1">
  <metadata id="CorelCorpID_0Corel-Layer"/>
  <g>
   <path id="telegram-1" class="fil0" d="M488.7 529.68c8.52,6.03 19.5,7.54 29.29,3.84 9.79,-3.73 16.99,-12.09 19.16,-22.23 22.99,-108.06 78.77,-381.56 99.7,-479.85 1.59,-7.41 -1.06,-15.11 -6.88,-20.06 -5.82,-4.95 -13.89,-6.38 -21.09,-3.7 -110.94,41.06 -452.6,169.25 -592.24,220.93 -8.86,3.28 -14.63,11.8 -14.34,21.14 0.32,9.37 6.61,17.49 15.69,20.21 62.63,18.73 144.83,44.79 144.83,44.79 0,0 38.42,116.02 58.45,175.02 2.51,7.41 8.31,13.23 15.95,15.24 7.62,1.98 15.77,-0.11 21.46,-5.48 32.17,-30.37 81.92,-77.34 81.92,-77.34 0,0 94.51,69.29 148.11,107.47l-0.01 0.02zm23.38 -430.54c-113.4,72.42 -314.69,200.97 -314.69,200.97l0 0 44.42 146.53 9.87 -92.79c0,0 171.64,-154.81 269.48,-243.05l-9.08 -11.66zm9.08 11.66c2.86,-2.59 3.25,-6.93 0.87,-9.97l-0.87 9.97zm0.87 -9.97c-2.35,-3.04 -6.69,-3.76 -9.95,-1.69l9.95 1.69z"/>
  </g>
 </g>
</svg>
