<?xml version="1.0" encoding="UTF-8"?>
<!DOCTYPE svg PUBLIC "-//W3C//DTD SVG 1.1//EN" "http://www.w3.org/Graphics/SVG/1.1/DTD/svg11.dtd">
<!-- Creator: CorelDRAW 2020 (64 Bit) -->
<svg xmlns="http://www.w3.org/2000/svg" xml:space="preserve" width="5.4mm" height="6.5mm" version="1.1" style="shape-rendering:geometricPrecision; text-rendering:geometricPrecision; image-rendering:optimizeQuality; fill-rule:evenodd; clip-rule:evenodd"
viewBox="0 0 540 650"
 xmlns:xlink="http://www.w3.org/1999/xlink"
 xmlns:xodm="http://www.corel.com/coreldraw/odm/2003">
 <defs>
  <style type="text/css">
   <![CDATA[
    .fil0 {fill:#FEFEFE}
   ]]>
  </style>
 </defs>
 <g id="Camada_x0020_1">
  <metadata id="CorelCorpID_0Corel-Layer"/>
  <path class="fil0" d="M30.94 647.7l502.71 0 0 -608.54 -26.45 0 0 582.08 -476.26 0 0 26.46zm449.8 -635l-476.25 0 0 582.08 476.25 0 0 -582.08zm-26.46 26.46l-423.34 0 0 529.17 423.34 0 0 -529.17zm-52.92 423.33l-317.5 0 0 26.46 317.5 0 0 -26.46zm0 -79.37l-317.5 0 0 26.46 317.5 0 0 -26.46zm0 -79.38l-317.5 0 0 26.46 317.5 0 0 -26.46zm-194.41 -102.21l25.08 7.94c-3.84,14 -10.24,24.39 -19.18,31.17 -8.94,6.8 -20.29,10.19 -34.05,10.19 -17.01,0 -30.98,-5.82 -41.94,-17.44 -10.95,-11.62 -16.43,-27.52 -16.43,-47.68 0,-21.33 5.5,-37.89 16.51,-49.69 11.01,-11.8 25.48,-17.7 43.44,-17.7 15.66,0 28.39,4.63 38.18,13.89 5.85,5.48 10.21,13.36 13.12,23.6l-25.61 6.11c-1.51,-6.64 -4.68,-11.88 -9.47,-15.72 -4.82,-3.86 -10.66,-5.77 -17.54,-5.77 -9.5,0 -17.2,3.41 -23.12,10.21 -5.9,6.83 -8.86,17.86 -8.86,33.13 0,16.22 2.91,27.75 8.76,34.61 5.82,6.88 13.39,10.32 22.7,10.32 6.88,0 12.81,-2.17 17.75,-6.56 4.95,-4.37 8.52,-11.24 10.66,-20.61zm79.98 47.1l-45.8 -128.11 28.05 0 32.44 94.83 31.38 -94.83 27.43 0 -45.88 128.11 -27.62 0z"/>
 </g>
</svg>
