<?xml version="1.0" encoding="UTF-8"?>
<!DOCTYPE svg PUBLIC "-//W3C//DTD SVG 1.1//EN" "http://www.w3.org/Graphics/SVG/1.1/DTD/svg11.dtd">
<!-- Creator: CorelDRAW 2020 (64 Bit) -->
<svg xmlns="http://www.w3.org/2000/svg" xml:space="preserve" width="6.45mm" height="6.45mm" version="1.1" style="shape-rendering:geometricPrecision; text-rendering:geometricPrecision; image-rendering:optimizeQuality; fill-rule:evenodd; clip-rule:evenodd"
viewBox="0 0 645 645"
 xmlns:xlink="http://www.w3.org/1999/xlink"
 xmlns:xodm="http://www.corel.com/coreldraw/odm/2003">
 <defs>
  <style type="text/css">
   <![CDATA[
    .fil0 {fill:#FEFEFE;fill-rule:nonzero}
   ]]>
  </style>
 </defs>
 <g id="Camada_x0020_1">
  <metadata id="CorelCorpID_0Corel-Layer"/>
  <path class="fil0" d="M314.81 20.53c-175.31,0 -317.5,142.16 -317.5,317.5 0,140.28 90.96,259.29 217.14,301.28 15.85,2.94 20.98,-6.91 20.98,-15.27l0 -59.11c-88.32,19.21 -106.71,-37.47 -106.71,-37.47 -14.45,-36.7 -35.27,-46.46 -35.27,-46.46 -28.81,-19.71 2.2,-19.29 2.2,-19.29 31.88,2.22 48.66,32.73 48.66,32.73 28.31,48.52 74.27,34.5 92.39,26.38 2.83,-20.51 11.06,-34.53 20.16,-42.44 -70.51,-8.07 -144.65,-35.3 -144.65,-156.92 0,-34.69 12.41,-63 32.7,-85.22 -3.28,-8.02 -14.16,-40.32 3.1,-84.03 0,0 26.67,-8.52 87.34,32.54 25.32,-7.04 52.47,-10.56 79.45,-10.69 26.99,0.13 54.16,3.65 79.53,10.69 60.62,-41.06 87.23,-32.54 87.23,-32.54 17.28,43.74 6.4,76.04 3.12,84.03 20.37,22.23 32.68,50.56 32.68,85.22 0,121.95 -74.27,148.8 -144.97,156.66 11.38,9.84 21.78,29.16 21.78,58.79l0 87.13c0,8.44 5.08,18.36 21.19,15.24 126.07,-42.04 216.93,-161.03 216.93,-301.25 0,-175.34 -142.16,-317.5 -317.5,-317.5l0.02 0z"/>
 </g>
</svg>
