<?xml version="1.0" encoding="UTF-8"?>
<!DOCTYPE svg PUBLIC "-//W3C//DTD SVG 1.1//EN" "http://www.w3.org/Graphics/SVG/1.1/DTD/svg11.dtd">
<!-- Creator: CorelDRAW 2020 (64 Bit) -->
<svg xmlns="http://www.w3.org/2000/svg" xml:space="preserve" width="6.5mm" height="4.7mm" version="1.1" style="shape-rendering:geometricPrecision; text-rendering:geometricPrecision; image-rendering:optimizeQuality; fill-rule:evenodd; clip-rule:evenodd"
viewBox="0 0 650 470"
 xmlns:xlink="http://www.w3.org/1999/xlink"
 xmlns:xodm="http://www.corel.com/coreldraw/odm/2003">
 <defs>
  <style type="text/css">
   <![CDATA[
    .fil0 {fill:#FEFEFE}
   ]]>
  </style>
 </defs>
 <g id="Camada_x0020_1">
  <metadata id="CorelCorpID_0Corel-Layer"/>
  <path class="fil0" d="M592 461.97l-544.4 0c-25,0 -45.3,-20.29 -45.3,-45.3l0 -359.2c0,-25 20.29,-45.3 45.3,-45.3l544.4 0c25,0 45.3,20.29 45.3,45.3l0 359.2c0,25 -20.29,45.3 -45.3,45.3zm-272.2 -161.03l-247.17 -171.53 -0.53 306.1 494.34 0 0 -306.1 -246.64 171.53zm234.66 -262.31l-470.67 0 236.01 164.81c0,0 165.42,-116.58 234.66,-164.81z"/>
 </g>
</svg>
